<?xml version="1.0" encoding="UTF-8"?>
<svg id="Layer_1" xmlns="http://www.w3.org/2000/svg" viewBox="0 0 500 315">
  <defs>
    <style>
      .cls-1 {
        fill: #e8e3dd;
      }
    </style>
  </defs>
  <path class="cls-1" d="M236.17,310.42H4.21c-.11-2.71-.14-6.12.19-10,.19-2.21.5-4.57.98-7.03,1-5.31,2.75-11.1,5.73-16.9,5.13-9.92,12.34-16.93,20.98-22.29,32.87-20.47,86.46-17.37,124.39-61.28,7.27-8.43,25.83-30.54,22.19-57.53-.39-2.89-4.3-29.64-25.62-38.8-15.72-6.76-34.46-1.17-46.39,7.97-27.37,20.99-15.21,57.99-41.4,70.76-7.48,3.66-18.23,5.4-28.62,2.14-1.82-.57-3.51-1.26-5.07-2.03-3.79-1.99-11.54-6.7-17.69-15.95-5.78-8.71-7.03-17.09-7.83-22.65-.58-3.97-.69-7.32-.68-9.73V5.63h52.76s-.04,0-.04.01h1.53c-.1,0-.23-.01-.41-.01h176.47c.1,16.8.18,33.62.28,50.42-10.42-14.73-25.65-30.15-46.5-33.59-3.9-.65-6.85-.71-8.22-.71-28.33.06-56.65.1-84.97.14-1.18,0-3.43.13-6.39.32-10.13.63-18.85,1.75-21.81,2.26-9.41,1.61-23.11,7.67-32.6,17.93-14.19,15.35-14.27,35.06-14.32,48.75-.01,3.41.29,52.84,24.52,60.81,5.11,1.68,9.55.95,10.56.76,20.99-3.95,19.8-38.4,40.63-58.84,23.71-23.27,74.99-27.43,100.2-2.65,17.04,16.76,18.96,40.72,19.59,51.9.32,5.39,1.77,38.28-17.62,63.95-42.77,56.67-147.92,26.6-164.45,71.04-.01.07-.04.14-.07.21-2.97,8.15,3.25,16.76,11.92,16.69,34.05-.22,68.08-.61,102.13-1.15,10.94-.17,21.87-.36,32.79-.57h.08s.07.01.11.01c.37,0,1.16-.01,2.16-.06,1.53-.07,3.54-.23,5.87-.65,21.49-3.79,36.55-22.09,46.58-39.34,0,19.04.01,38.08.01,57.14Z"/>
  <path class="cls-1" d="M495.87,310.42h-231.97c-.11-2.71-.14-6.12.19-10,.19-2.21.5-4.57.98-7.03,1-5.31,2.75-11.1,5.73-16.9,5.13-9.92,12.34-16.93,20.98-22.29,32.87-20.47,86.46-17.37,124.39-61.28,7.27-8.43,25.83-30.54,22.19-57.53-.39-2.89-4.3-29.64-25.62-38.8-15.72-6.76-34.46-1.17-46.39,7.97-27.37,20.99-15.21,57.99-41.4,70.76-7.48,3.66-18.23,5.4-28.62,2.14-1.82-.57-3.51-1.26-5.07-2.03-3.79-1.99-11.54-6.7-17.69-15.95-5.78-8.71-7.03-17.09-7.83-22.65-.58-3.97-.69-7.32-.68-9.73V5.63h52.76s-.04,0-.04.01h1.53c-.1,0-.23-.01-.41-.01h176.47c.1,16.8.18,33.62.28,50.42-10.42-14.73-25.65-30.15-46.5-33.59-3.9-.65-6.85-.71-8.22-.71-28.33.06-56.65.1-84.97.14-1.18,0-3.43.13-6.39.32-10.13.63-18.85,1.75-21.81,2.26-9.41,1.61-23.11,7.67-32.6,17.93-14.19,15.35-14.27,35.06-14.32,48.75-.01,3.41.29,52.84,24.52,60.81,5.11,1.68,9.55.95,10.56.76,20.99-3.95,19.8-38.4,40.63-58.84,23.71-23.27,74.99-27.43,100.2-2.65,17.04,16.76,18.96,40.72,19.59,51.9.32,5.39,1.77,38.28-17.62,63.95-42.77,56.67-147.92,26.6-164.45,71.04-.01.07-.04.14-.07.21-2.97,8.15,3.25,16.76,11.92,16.69,34.05-.22,68.08-.61,102.13-1.15,10.94-.17,21.87-.36,32.79-.57h.08s.07.01.11.01c.37,0,1.16-.01,2.16-.06,1.53-.07,3.54-.23,5.87-.65,21.49-3.79,36.55-22.09,46.58-39.34,0,19.04.01,38.08.01,57.14Z"/>
</svg>