<?xml version="1.0" encoding="UTF-8"?>
<svg id="Layer_1" xmlns="http://www.w3.org/2000/svg" viewBox="0 0 500 315">
  <defs>
    <style>
      .cls-1 {
        fill: #1e1e1e;
      }
    </style>
  </defs>
  <path class="cls-1" d="M234.87,312.28H.08c-.11-2.74-.14-6.2.2-10.13.2-2.24.5-4.63.99-7.12,1.01-5.37,2.78-11.23,5.8-17.11,5.19-10.04,12.49-17.13,21.23-22.56,33.27-20.72,87.51-17.58,125.91-62.03,7.36-8.53,26.14-30.91,22.46-58.23-.39-2.92-4.35-30-25.93-39.27-15.92-6.84-34.88-1.19-46.95,8.07-27.71,21.25-15.4,58.7-41.9,71.63-7.57,3.71-18.45,5.47-28.97,2.17-1.85-.57-3.55-1.27-5.13-2.06-3.83-2.01-11.68-6.78-17.9-16.14-5.85-8.81-7.12-17.3-7.93-22.92-.59-4.01-.7-7.41-.69-9.85V3.78h53.4s-.04,0-.04.01h1.55c-.1,0-.24-.01-.42-.01h178.62c.1,17.01.18,34.03.28,51.04-10.55-14.91-25.96-30.52-47.07-34-3.94-.66-6.94-.71-8.32-.71-28.67.06-57.35.1-86,.14-1.2,0-3.47.14-6.47.32-10.26.64-19.08,1.78-22.07,2.29-9.53,1.63-23.4,7.76-33,18.15-14.36,15.54-14.44,35.48-14.5,49.34-.01,3.45.29,53.49,24.82,61.56,5.18,1.7,9.67.96,10.69.77,21.25-4,20.04-38.87,41.12-59.56,24-23.55,75.91-27.76,101.42-2.69,17.25,16.97,19.19,41.22,19.83,52.53.32,5.45,1.79,38.74-17.83,64.73-43.29,57.36-149.73,26.92-166.46,71.91-.01.07-.04.14-.07.21-3.01,8.25,3.29,16.97,12.07,16.9,34.46-.22,68.91-.62,103.38-1.16,11.08-.17,22.14-.36,33.19-.57h.08s.07.01.11.01c.38,0,1.17-.01,2.18-.06,1.55-.07,3.58-.24,5.94-.66,21.75-3.83,37-22.36,47.15-39.82,0,19.27.01,38.55.01,57.83Z"/>
  <path class="cls-1" d="M497.73,312.28h-234.8c-.11-2.74-.14-6.2.2-10.13.2-2.24.5-4.63.99-7.12,1.01-5.37,2.78-11.23,5.8-17.11,5.19-10.04,12.49-17.13,21.23-22.56,33.27-20.72,87.51-17.58,125.91-62.03,7.36-8.53,26.14-30.91,22.46-58.23-.39-2.92-4.35-30-25.93-39.27-15.92-6.84-34.88-1.19-46.95,8.07-27.71,21.25-15.4,58.7-41.9,71.63-7.57,3.71-18.45,5.47-28.97,2.17-1.85-.57-3.55-1.27-5.13-2.06-3.83-2.01-11.68-6.78-17.9-16.14-5.85-8.81-7.12-17.3-7.93-22.92-.59-4.01-.7-7.41-.69-9.85V3.78h53.4s-.04,0-.04.01h1.55c-.1,0-.24-.01-.42-.01h178.62c.1,17.01.18,34.03.28,51.04-10.55-14.91-25.96-30.52-47.07-34-3.94-.66-6.94-.71-8.32-.71-28.67.06-57.35.1-86,.14-1.2,0-3.47.14-6.47.32-10.26.64-19.08,1.78-22.07,2.29-9.53,1.63-23.4,7.76-33,18.15-14.36,15.54-14.44,35.48-14.5,49.34-.01,3.45.29,53.49,24.82,61.56,5.18,1.7,9.67.96,10.69.77,21.25-4,20.04-38.87,41.12-59.56,24-23.55,75.91-27.76,101.42-2.69,17.25,16.97,19.19,41.22,19.83,52.53.32,5.45,1.79,38.74-17.83,64.73-43.29,57.36-149.73,26.92-166.46,71.91-.01.07-.04.14-.07.21-3.01,8.25,3.29,16.97,12.07,16.9,34.46-.22,68.91-.62,103.38-1.16,11.08-.17,22.14-.36,33.19-.57h.08s.07.01.11.01c.38,0,1.17-.01,2.18-.06,1.55-.07,3.58-.24,5.94-.66,21.75-3.83,37-22.36,47.15-39.82,0,19.27.01,38.55.01,57.83Z"/>
</svg>