<?xml version="1.0" encoding="UTF-8"?>
<svg id="Layer_1" xmlns="http://www.w3.org/2000/svg" viewBox="0 0 500 400">
  <defs>
    <style>
      .cls-1 {
        fill: #e8e3dd;
      }
    </style>
  </defs>
  <g>
    <path class="cls-1" d="M235.67,306.1H4.59c-.11-2.7-.14-6.1.19-9.97.19-2.2.5-4.56.98-7.01.99-5.29,2.74-11.05,5.71-16.83,5.11-9.88,12.29-16.86,20.9-22.2,32.75-20.39,86.13-17.3,123.92-61.05,7.24-8.4,25.73-30.42,22.11-57.31-.39-2.88-4.28-29.53-25.52-38.65-15.66-6.73-34.33-1.17-46.21,7.94-27.27,20.91-15.16,57.77-41.24,70.49-7.45,3.65-18.16,5.38-28.51,2.13-1.82-.56-3.5-1.25-5.05-2.02-3.77-1.98-11.49-6.68-17.62-15.89-5.75-8.67-7.01-17.03-7.8-22.56-.58-3.95-.69-7.3-.67-9.69V2.48h52.56s-.04,0-.04.01h1.53c-.1,0-.23-.01-.41-.01h175.8c.1,16.74.18,33.49.28,50.23-10.38-14.67-25.55-30.04-46.32-33.46-3.88-.65-6.83-.7-8.19-.7-28.22.06-56.44.1-84.64.14-1.18,0-3.42.13-6.37.32-10.09.63-18.78,1.75-21.72,2.25-9.38,1.6-23.03,7.64-32.48,17.86-14.14,15.29-14.21,34.92-14.27,48.56-.01,3.4.29,52.64,24.43,60.58,5.09,1.68,9.52.95,10.52.76,20.91-3.94,19.73-38.25,40.47-58.61,23.62-23.18,74.7-27.32,99.81-2.64,16.97,16.7,18.89,40.57,19.52,51.7.32,5.37,1.76,38.13-17.55,63.71-42.6,56.45-147.36,26.5-163.82,70.77-.01.07-.04.14-.07.21-2.96,8.12,3.23,16.7,11.88,16.63,33.92-.22,67.82-.61,101.74-1.14,10.9-.17,21.79-.36,32.67-.56h.08s.07.01.11.01c.37,0,1.16-.01,2.15-.06,1.53-.07,3.52-.23,5.85-.65,21.41-3.77,36.41-22.01,46.4-39.19,0,18.97.01,37.94.01,56.92Z"/>
    <path class="cls-1" d="M494.37,306.1h-231.08c-.11-2.7-.14-6.1.19-9.97.19-2.2.5-4.56.98-7.01.99-5.29,2.74-11.05,5.71-16.83,5.11-9.88,12.29-16.86,20.9-22.2,32.75-20.39,86.13-17.3,123.92-61.05,7.24-8.4,25.73-30.42,22.11-57.31-.39-2.88-4.28-29.53-25.52-38.65-15.66-6.73-34.33-1.17-46.21,7.94-27.27,20.91-15.16,57.77-41.24,70.49-7.45,3.65-18.16,5.38-28.51,2.13-1.82-.56-3.5-1.25-5.05-2.02-3.77-1.98-11.49-6.68-17.62-15.89-5.75-8.67-7.01-17.03-7.8-22.56-.58-3.95-.69-7.3-.67-9.69V2.48h52.56s-.04,0-.04.01h1.53c-.1,0-.23-.01-.41-.01h175.8c.1,16.74.18,33.49.28,50.23-10.38-14.67-25.55-30.04-46.32-33.46-3.88-.65-6.83-.7-8.19-.7-28.22.06-56.44.1-84.64.14-1.18,0-3.42.13-6.37.32-10.09.63-18.78,1.75-21.72,2.25-9.38,1.6-23.03,7.64-32.48,17.86-14.14,15.29-14.21,34.92-14.27,48.56-.01,3.4.29,52.64,24.43,60.58,5.09,1.68,9.52.95,10.52.76,20.91-3.94,19.73-38.25,40.47-58.61,23.62-23.18,74.7-27.32,99.81-2.64,16.97,16.7,18.89,40.57,19.52,51.7.32,5.37,1.76,38.13-17.55,63.71-42.6,56.45-147.36,26.5-163.82,70.77-.01.07-.04.14-.07.21-2.96,8.12,3.23,16.7,11.88,16.63,33.92-.22,67.82-.61,101.74-1.14,10.9-.17,21.79-.36,32.67-.56h.08s.07.01.11.01c.37,0,1.16-.01,2.15-.06,1.53-.07,3.52-.23,5.85-.65,21.41-3.77,36.41-22.01,46.4-39.19,0,18.97.01,37.94.01,56.92Z"/>
  </g>
  <g>
    <path class="cls-1" d="M43.83,394.77c-25.35-.02-43.66-.03-43.66,0,0,0,1.97.15,3.46-1,.43-.33.68-.7.82-1.02.01-.02.02-.05.03-.07.13-.29.16-.54.18-.67,0-.03,0-.07.01-.11,0-.05,0-.09.01-.15.23-2.95.23-21.61.03-46.75,0-.09,0-.2-.03-.34-.15-.8-.68-1.33-.94-1.59-1.14-1.12-3.2-1.33-3.41-1.35,14.54,0,29.07,0,43.61,0,0,2.96-.02,5.91-.03,8.87-.62-.95-1.64-2.28-3.21-3.53-.91-.72-1.93-1.27-3.01-1.65-1.09-.38-2.23-.58-3.39-.58h-14.25c-.26,0-.51,0-.76.02-5.67.35-10,5.25-10.04,10.93-.02,2.78-.03,5.44-.05,7.98,0,1.35,1.17,2.41,2.51,2.24.89-.11,1.87-.2,2.92-.22,10.12-.24,15.46,5.14,22.17,2.54,1.08-.42,2.77-1.27,4.56-3.18-1.13,5.22-3.06,6.89-4.56,7.48-5.18,2.04-15.31-5.07-21.7-4.69-.13,0-.25.01-.37.02-.02,0-.05,0-.07,0-3.14.27-5.49,3.01-5.49,6.16,0,6.82.02,12.02.09,15.06.03,1.44,1.21,2.59,2.65,2.59h21.89c2.55,0,5.03-.94,6.89-2.67l.04-.04c1.63-1.53,2.63-3.1,3.21-4.21-.04,3.31-.08,6.62-.12,9.94Z"/>
    <path class="cls-1" d="M331.67,394.77c-25.35-.02-43.66-.03-43.66,0,0,0,1.97.15,3.46-1,.43-.33.68-.7.82-1.02.01-.02.02-.05.03-.07.13-.29.16-.54.18-.67,0-.03,0-.07.01-.11,0-.05,0-.09.01-.15.23-2.95.23-21.61.03-46.75,0-.09,0-.2-.03-.34-.15-.8-.68-1.33-.94-1.59-1.14-1.12-3.2-1.33-3.41-1.35,14.54,0,29.07,0,43.61,0,0,2.96-.02,5.91-.03,8.87-.62-.95-1.64-2.28-3.21-3.53-.91-.72-1.93-1.27-3.01-1.65-1.09-.38-2.23-.58-3.39-.58h-14.25c-.26,0-.51,0-.76.02-5.67.35-10,5.25-10.04,10.93-.02,2.78-.03,5.44-.05,7.98,0,1.35,1.17,2.41,2.51,2.24.89-.11,1.87-.2,2.92-.22,10.12-.24,15.46,5.14,22.17,2.54,1.08-.42,2.77-1.27,4.56-3.18-1.13,5.22-3.06,6.89-4.56,7.48-5.18,2.04-15.31-5.07-21.7-4.69-.13,0-.25.01-.37.02-.02,0-.05,0-.07,0-3.14.27-5.49,3.01-5.49,6.16,0,6.82.02,12.02.09,15.06.03,1.44,1.21,2.59,2.65,2.59h21.89c2.55,0,5.03-.94,6.89-2.67l.04-.04c1.63-1.53,2.63-3.1,3.21-4.21-.04,3.31-.08,6.62-.12,9.94Z"/>
    <g>
      <path class="cls-1" d="M167.71,394.76h-.18c.08,0,.14,0,.18,0Z"/>
      <path class="cls-1" d="M153.93,394.76h-.2s.11,0,.2,0Z"/>
      <path class="cls-1" d="M167.53,341.72h.18s-.1,0-.18,0Z"/>
      <path class="cls-1" d="M164.03,393.41c-.75-.67-.92-1.35-.96-1.74,0-.06,0-.12-.01-.19-.08-8.63-.13-16.5-.16-23.23.02-6.74.08-14.6.16-23.23,0-.07,0-.13.01-.19.04-.39.22-1.07.96-1.74,1.2-1.07,2.97-1.3,3.4-1.35.04,0,.08,0,.11,0h-.08s0,0,0,0h-13.46s0,0,0,0h-.07s.06,0,.09,0c.42.05,2.2.28,3.4,1.35.66.59.87,1.19.94,1.6.01.15.03.36.04.6.07,8.53.11,16.31.13,22.97-.02,6.66-.06,14.44-.13,22.97-.01.25-.02.45-.04.6-.07.4-.29,1.01-.94,1.6-1.2,1.08-2.98,1.31-3.4,1.35-.03,0-.06,0-.09,0h.08s0,0,0,0h13.46s0,0,0,0h.08s-.07,0-.11,0c-.43-.05-2.2-.28-3.4-1.35Z"/>
      <path class="cls-1" d="M153.74,341.72h.2c-.09,0-.16,0-.2,0Z"/>
    </g>
    <g>
      <path class="cls-1" d="M74.15,394.76h-.2s0,0,.01,0h-.01s.1,0,.2,0h-.02s.01,0,.02,0Z"/>
      <path class="cls-1" d="M112.86,394.51c-.2,0-.4,0-.6,0,.13.01.35.02.6,0Z"/>
      <path class="cls-1" d="M122.22,393.96c-1.52-1.05-1.65-2.93-1.66-3.22,0-1.22-.05-2.92-.29-4.94-.3-2.47-.6-4.35-.9-5.48-.29-1.1-.92-3.44-2.35-5.89,0,0-2.37-4.06-6.7-6.86-5.3-3.43-14.9-3.31-24.46,1.48-.38.19-.78-.2-.61-.59,1.54-3.53,5.48-10.85,13.93-15.72,6.82-3.92,13.33-4.37,16.5-4.38.45.06,1.26.24,2.03.85,1.59,1.26,1.63,3.25,1.63,3.54,0-4.39,0-8.78,0-13.17-.04.37-.26,2.08-1.74,3.26-.89.72-1.83.91-2.3.98-3.74.3-8.54,1.22-13.53,3.72-9.61,4.8-15.05,12.97-18.02,19.41-.16.35-.68.23-.68-.15,0-.24,0-.47,0-.71,0-.24,0-.48,0-.72,0-.6,0-1.2,0-1.81,0-.28,0-.57,0-.85,0-.59,0-1.19.01-1.8,0-.31,0-.63,0-.94,0-.59,0-1.2.01-1.8,0-.34,0-.68,0-1.02,0-.55,0-1.12.01-1.68,0-.41,0-.81,0-1.23,0-.6,0-1.2.01-1.81,0-.37,0-.73,0-1.1,0-.59,0-1.19.01-1.79,0-.43,0-.85.01-1.28,0-.53,0-1.07.01-1.61,0-.46,0-.92.01-1.39,0-.07,0-.13.01-.19,0,0,0,0,0,0,0-.07.02-.15.04-.23,0-.03.01-.07.02-.1,0-.03.02-.06.03-.08.01-.05.03-.09.05-.14.01-.03.02-.06.04-.09.02-.05.05-.1.07-.16.02-.03.03-.06.05-.1.03-.06.06-.11.1-.17.02-.03.04-.07.07-.1.04-.06.09-.12.15-.19.02-.03.05-.06.07-.09.08-.09.17-.18.27-.28.15-.13.31-.26.48-.37.04-.03.08-.05.12-.07.13-.08.26-.16.39-.23.04-.02.08-.04.12-.06.13-.06.26-.12.4-.17.04-.02.08-.03.12-.04.13-.05.26-.09.38-.13.05-.01.09-.02.13-.04.11-.03.23-.06.33-.09.05-.01.1-.02.15-.03.09-.02.17-.04.25-.05.06-.01.12-.02.17-.03.05,0,.1-.02.14-.02.08-.01.15-.02.2-.03.04,0,.07,0,.11,0h-.08s0,0,0,0c0,0,0,0,0,0h0s0,0,0,0h-13.39s0,0,0,0h0s0,0,0,0h-.07s.06,0,.09,0c0,0,0,0,0,0,.05,0,.12.01.19.02.04,0,.1.02.15.02.05,0,.1.02.16.03.08.01.17.03.26.05.05.01.09.02.14.03.1.02.22.06.33.09.05.01.09.02.14.04.12.04.25.08.37.13.04.02.09.03.13.04.13.05.26.11.39.17.04.02.09.04.13.06.13.06.25.14.38.22.04.03.09.05.13.08.16.11.32.23.47.36,0,0,0,0,.01,0,0,0,0,0,0,0,.1.09.19.18.26.27.02.03.05.05.07.08.06.07.11.13.15.2.02.02.04.05.05.07.06.08.11.17.15.25,0,.01.01.02.02.03.04.07.07.14.09.21.01.03.02.06.03.08.02.05.03.1.05.14,0,.03.02.05.02.08.01.06.03.11.04.16,0,0,0,0,0,.01.01.15.02.35.04.6,0,1.04.02,2.07.02,3.09,0,.05,0,.09,0,.14,0,.99.01,1.98.02,2.95,0,.02,0,.04,0,.07.01,2.01.03,3.98.04,5.88,0,0,0,0,0,.01.02,3.82.04,7.41.05,10.73-.02,6.63-.06,14.37-.13,22.86,0,.12-.01.23-.02.33,0,0,0,0,0,.01,0,.1-.01.18-.02.25-.07.4-.29,1-.94,1.59-1.18,1.06-2.93,1.3-3.37,1.34-.03,0-.08,0-.11,0h0s0,0,0,0h.07s0,0,0,0h13.39s0,0,0,0h.08s0,0,0,0h0s-.08,0-.12,0c-.44-.05-2.19-.28-3.37-1.34-.74-.66-.92-1.35-.96-1.73,0-.06,0-.11-.01-.18,0,0,0-.01,0-.02-.04-4.84-.08-9.43-.11-13.73.32-2.69,1.85-5.1,4.2-6.52,6.32-3.79,15.74-4.03,22.29,1.59,0,0,8.36,7.24,5.88,19.05-.06.31-.2.77-.51,1.27-.12.2-.34.55-.71.84-.46.36-.99.49-1.41.52,3.62.01,7.25.03,10.87.04-.4-.06-.96-.22-1.51-.6Z"/>
      <path class="cls-1" d="M87.68,394.76c.08,0,.14,0,.18,0h-.01s0,0,.01,0h-.18s.01,0,.02,0h-.02Z"/>
      <path class="cls-1" d="M87.68,341.98h.18s-.1,0-.18,0Z"/>
      <path class="cls-1" d="M73.95,341.98h.2c-.09,0-.16,0-.2,0Z"/>
    </g>
    <path class="cls-1" d="M403.35,349.46c-5.13-4.81-12.21-7.78-20.04-7.78-7.17.01-14.34.02-21.51.04.03,0,.06,0,.09,0,.42.05,2.21.27,3.41,1.35.65.58.87,1.19.94,1.6,0,.15.02.35.04.6.02,3.2.05,6.29.07,9.26.02,4.95.04,9.55.06,13.71-.02,4.17-.04,8.77-.06,13.71-.02,2.97-.05,6.06-.07,9.26-.01.25-.03.46-.04.61-.07.4-.29,1.01-.94,1.59-1.2,1.08-2.98,1.31-3.41,1.36l21.42.05c15.66,0,28.35-11.9,28.35-26.57,0-7.34-3.17-13.97-8.3-18.78ZM399,385.49c-4.7,4.41-11.21,7.14-18.39,7.14h-6.23c-1.66,0-3-1.34-3-3v-36.53c0-5.1,4.13-9.23,9.23-9.23h0c14.37,0,26.01,10.91,26.01,24.38,0,6.74-2.91,12.83-7.62,17.25Z"/>
    <path class="cls-1" d="M253.45,354.38c-.04,5-.06,9.65-.08,13.86.02,4.21.04,8.86.08,13.86.02,3.01.05,6.14.08,9.38,0,.07,0,.13.02.19.04.39.22,1.07.96,1.74,1.19,1.07,2.97,1.31,3.4,1.36h-13.4c.43-.04,2.21-.28,3.41-1.36.46-.41.7-.82.83-1.17v-43.85c0-.78-1.04-1.04-1.41-.36l-18.03,33.19h0c-.54,1.01-1.59,1.64-2.72,1.64h0c-1.1,0-2.12-.59-2.67-1.54l-17.11-29.36-.99-1.69c-.39-.66-1.4-.39-1.4.38v40.84c0,.14.02.25.02.35.08.39.28,1.01.95,1.59,1.2,1.08,2.98,1.31,3.41,1.35h-10.96c.43-.04,2.21-.28,3.41-1.36.66-.59.87-1.19.95-1.59,0-.08.02-.17.02-.27,0-.1,0-.22.02-.34,0-.8,0-1.59.02-2.37.06-7.61.09-14.55.11-20.6-.02-6.04-.05-12.99-.11-20.59,0-.79,0-1.58-.02-2.38-.02-.25-.02-.45-.04-.6-.08-.41-.28-1.01-.95-1.6-.38-.34-.81-.59-1.24-.79-.94-.41-1.87-.53-2.16-.56-.03,0-.06,0-.09,0h8.57s.33.57.33.57l.74,1.28,19.19,32.93c.64,1.1,2.24,1.08,2.85-.04l18.25-33.6.62-1.14h9.75s-.07,0-.11,0c-.43.05-2.2.28-3.4,1.35-.74.67-.92,1.35-.96,1.74,0,.06-.02.12-.02.2-.03,3.23-.06,6.36-.08,9.37Z"/>
    <path class="cls-1" d="M469.96,340.73c-15.63,0-28.31,12.38-28.31,27.64s12.68,27.64,28.31,27.64,28.3-12.37,28.3-27.64-12.67-27.64-28.3-27.64ZM469.84,390.67c-14.64,0-26.51-9.91-26.51-22.14s11.87-22.14,26.51-22.14,26.51,9.91,26.51,22.14-11.87,22.14-26.51,22.14Z"/>
  </g>
</svg>