<?xml version="1.0" encoding="UTF-8"?>
<svg id="Layer_1" xmlns="http://www.w3.org/2000/svg" viewBox="0 0 500 400">
  <defs>
    <style>
      .cls-1 {
        fill: #1e1e1e;
      }
    </style>
  </defs>
  <g>
    <path class="cls-1" d="M236.4,308.58H4.43c-.11-2.71-.14-6.12.19-10,.19-2.21.5-4.57.98-7.03,1-5.31,2.75-11.1,5.73-16.9,5.13-9.92,12.34-16.93,20.98-22.29,32.87-20.47,86.46-17.37,124.39-61.28,7.27-8.43,25.83-30.54,22.19-57.53-.39-2.89-4.3-29.64-25.62-38.8-15.72-6.76-34.46-1.17-46.39,7.97-27.37,20.99-15.21,57.99-41.4,70.76-7.48,3.66-18.23,5.4-28.62,2.14-1.82-.57-3.51-1.26-5.07-2.03-3.79-1.99-11.54-6.7-17.69-15.95-5.78-8.71-7.03-17.09-7.83-22.65-.58-3.97-.69-7.32-.68-9.73V3.79h52.76s-.04,0-.04.01h1.53c-.1,0-.23-.01-.41-.01h176.47c.1,16.8.18,33.62.28,50.42-10.42-14.73-25.65-30.15-46.5-33.59-3.9-.65-6.85-.71-8.22-.71-28.33.06-56.65.1-84.97.14-1.18,0-3.43.13-6.39.32-10.13.63-18.85,1.75-21.81,2.26-9.41,1.61-23.11,7.67-32.6,17.93-14.19,15.35-14.27,35.06-14.32,48.75-.01,3.41.29,52.84,24.52,60.81,5.11,1.68,9.55.95,10.56.76,20.99-3.95,19.8-38.4,40.63-58.84,23.71-23.27,74.99-27.43,100.2-2.65,17.04,16.76,18.96,40.72,19.59,51.9.32,5.39,1.77,38.28-17.62,63.95-42.77,56.67-147.92,26.6-164.45,71.04-.01.07-.04.14-.07.21-2.97,8.15,3.25,16.76,11.92,16.69,34.05-.22,68.08-.61,102.13-1.15,10.94-.17,21.87-.36,32.79-.57h.08s.07.01.11.01c.37,0,1.16-.01,2.16-.06,1.53-.07,3.54-.23,5.87-.65,21.49-3.79,36.55-22.09,46.58-39.34,0,19.04.01,38.08.01,57.14Z"/>
    <path class="cls-1" d="M496.09,308.58h-231.97c-.11-2.71-.14-6.12.19-10,.19-2.21.5-4.57.98-7.03,1-5.31,2.75-11.1,5.73-16.9,5.13-9.92,12.34-16.93,20.98-22.29,32.87-20.47,86.46-17.37,124.39-61.28,7.27-8.43,25.83-30.54,22.19-57.53-.39-2.89-4.3-29.64-25.62-38.8-15.72-6.76-34.46-1.17-46.39,7.97-27.37,20.99-15.21,57.99-41.4,70.76-7.48,3.66-18.23,5.4-28.62,2.14-1.82-.57-3.51-1.26-5.07-2.03-3.79-1.99-11.54-6.7-17.69-15.95-5.78-8.71-7.03-17.09-7.83-22.65-.58-3.97-.69-7.32-.68-9.73V3.79h52.76s-.04,0-.04.01h1.53c-.1,0-.23-.01-.41-.01h176.47c.1,16.8.18,33.62.28,50.42-10.42-14.73-25.65-30.15-46.5-33.59-3.9-.65-6.85-.71-8.22-.71-28.33.06-56.65.1-84.97.14-1.18,0-3.43.13-6.39.32-10.13.63-18.85,1.75-21.81,2.26-9.41,1.61-23.11,7.67-32.6,17.93-14.19,15.35-14.27,35.06-14.32,48.75-.01,3.41.29,52.84,24.52,60.81,5.11,1.68,9.55.95,10.56.76,20.99-3.95,19.8-38.4,40.63-58.84,23.71-23.27,74.99-27.43,100.2-2.65,17.04,16.76,18.96,40.72,19.59,51.9.32,5.39,1.77,38.28-17.62,63.95-42.77,56.67-147.92,26.6-164.45,71.04-.01.07-.04.14-.07.21-2.97,8.15,3.25,16.76,11.92,16.69,34.05-.22,68.08-.61,102.13-1.15,10.94-.17,21.87-.36,32.79-.57h.08s.07.01.11.01c.37,0,1.16-.01,2.16-.06,1.53-.07,3.54-.23,5.87-.65,21.49-3.79,36.55-22.09,46.58-39.34,0,19.04.01,38.08.01,57.14Z"/>
  </g>
  <g>
    <path class="cls-1" d="M43.82,397.58c-25.45-.02-43.82-.03-43.82,0,0,0,1.97.15,3.48-1.01.43-.33.69-.7.83-1.02.01-.02.02-.05.03-.07.13-.29.16-.54.18-.67,0-.03,0-.07.01-.11,0-.05,0-.09.01-.15.23-2.96.23-21.69.03-46.92,0-.09,0-.2-.03-.35-.15-.81-.68-1.34-.95-1.6-1.14-1.12-3.21-1.34-3.42-1.36,14.59,0,29.18,0,43.78,0,0,2.97-.02,5.94-.03,8.9-.62-.95-1.65-2.29-3.22-3.54-.91-.72-1.94-1.28-3.02-1.66-1.09-.38-2.24-.58-3.4-.58h-14.3c-.26,0-.51,0-.77.02-5.69.35-10.04,5.27-10.08,10.97-.02,2.79-.03,5.46-.05,8.01,0,1.36,1.18,2.42,2.52,2.25.89-.11,1.87-.2,2.93-.22,10.16-.24,15.52,5.16,22.25,2.55,1.08-.42,2.78-1.27,4.58-3.19-1.13,5.24-3.07,6.92-4.58,7.51-5.2,2.04-15.37-5.09-21.79-4.71-.13,0-.25.01-.37.02-.02,0-.05,0-.07,0-3.15.27-5.51,3.02-5.51,6.18,0,6.84.02,12.07.09,15.12.03,1.45,1.21,2.6,2.66,2.6h21.97c2.56,0,5.05-.94,6.92-2.68l.04-.04c1.63-1.53,2.64-3.11,3.22-4.23-.04,3.32-.08,6.65-.12,9.97Z"/>
    <path class="cls-1" d="M332.77,397.58c-25.45-.02-43.82-.03-43.82,0,0,0,1.97.15,3.48-1.01.43-.33.69-.7.83-1.02.01-.02.02-.05.03-.07.13-.29.16-.54.18-.67,0-.03,0-.07.01-.11,0-.05,0-.09.01-.15.23-2.96.23-21.69.03-46.92,0-.09,0-.2-.03-.35-.15-.81-.68-1.34-.95-1.6-1.14-1.12-3.21-1.34-3.42-1.36,14.59,0,29.18,0,43.78,0,0,2.97-.02,5.94-.03,8.9-.62-.95-1.65-2.29-3.22-3.54-.91-.72-1.94-1.28-3.02-1.66-1.09-.38-2.24-.58-3.4-.58h-14.3c-.26,0-.51,0-.77.02-5.69.35-10.04,5.27-10.08,10.97-.02,2.79-.03,5.46-.05,8.01,0,1.36,1.18,2.42,2.52,2.25.89-.11,1.87-.2,2.93-.22,10.16-.24,15.52,5.16,22.25,2.55,1.08-.42,2.78-1.27,4.58-3.19-1.13,5.24-3.07,6.92-4.58,7.51-5.2,2.04-15.37-5.09-21.79-4.71-.13,0-.25.01-.37.02-.02,0-.05,0-.07,0-3.15.27-5.51,3.02-5.51,6.18,0,6.84.02,12.07.09,15.12.03,1.45,1.21,2.6,2.66,2.6h21.97c2.56,0,5.05-.94,6.92-2.68l.04-.04c1.63-1.53,2.64-3.11,3.22-4.23-.04,3.32-.08,6.65-.12,9.97Z"/>
    <g>
      <path class="cls-1" d="M168.18,397.58h-.18c.08,0,.15,0,.18,0Z"/>
      <path class="cls-1" d="M154.35,397.58h-.2s.11,0,.2,0Z"/>
      <path class="cls-1" d="M168,344.33h.18s-.1,0-.18,0Z"/>
      <path class="cls-1" d="M164.48,396.22c-.75-.67-.93-1.36-.97-1.75,0-.06,0-.12-.01-.19-.08-8.67-.13-16.56-.16-23.32.02-6.76.08-14.66.16-23.32,0-.07,0-.13.01-.19.04-.39.22-1.08.97-1.75,1.2-1.08,2.98-1.31,3.41-1.36.04,0,.08,0,.11,0h-.08s0,0,0,0h-13.51s0,0,0,0h-.08s.06,0,.09,0c.42.05,2.21.28,3.42,1.36.66.59.88,1.2.95,1.6.01.15.03.36.04.6.07,8.56.11,16.37.13,23.06-.02,6.69-.06,14.49-.13,23.06-.01.25-.02.45-.04.6-.07.4-.29,1.01-.95,1.6-1.2,1.08-2.99,1.31-3.42,1.36-.03,0-.06,0-.09,0h.08s0,0,0,0h13.51s0,0,0,0h.09s-.07,0-.11,0c-.43-.05-2.21-.28-3.41-1.36Z"/>
      <path class="cls-1" d="M154.15,344.33h.2c-.09,0-.16,0-.2,0Z"/>
    </g>
    <g>
      <path class="cls-1" d="M74.26,397.58h-.2s0,0,.01,0h-.01s.1,0,.2,0h-.02s.01,0,.02,0Z"/>
      <path class="cls-1" d="M113.12,397.33c-.2,0-.4,0-.61,0,.13.01.35.02.61,0Z"/>
      <path class="cls-1" d="M122.52,396.77c-1.52-1.06-1.65-2.94-1.67-3.23,0-1.22-.05-2.93-.29-4.96-.3-2.48-.6-4.37-.9-5.5-.29-1.1-.92-3.46-2.36-5.91,0,0-2.38-4.07-6.72-6.88-5.32-3.45-14.96-3.32-24.56,1.48-.38.19-.79-.2-.62-.59,1.55-3.54,5.5-10.9,13.99-15.78,6.84-3.94,13.38-4.39,16.56-4.4.45.06,1.27.25,2.04.85,1.6,1.26,1.63,3.26,1.63,3.55,0-4.41,0-8.81,0-13.22-.04.37-.26,2.08-1.75,3.28-.89.72-1.84.92-2.3.98-3.76.3-8.57,1.23-13.58,3.73-9.65,4.82-15.11,13.02-18.09,19.49-.16.35-.68.24-.68-.15,0-.24,0-.47,0-.72,0-.24,0-.48,0-.73,0-.6,0-1.21,0-1.82,0-.28,0-.57,0-.86,0-.6,0-1.2.01-1.81,0-.31,0-.63,0-.95,0-.6,0-1.2.01-1.81,0-.34,0-.68,0-1.02,0-.56,0-1.12.01-1.68,0-.41,0-.82,0-1.23,0-.6,0-1.21.01-1.82,0-.37,0-.73,0-1.1,0-.59,0-1.2.01-1.8,0-.43,0-.85.01-1.29,0-.53,0-1.08.01-1.62,0-.47,0-.93.01-1.4,0-.07,0-.13.01-.19,0,0,0,0,0,0,0-.07.02-.15.04-.23,0-.03.01-.07.02-.1,0-.03.02-.06.03-.08.01-.05.03-.1.05-.15.01-.03.03-.06.04-.09.02-.05.05-.1.07-.16.02-.03.03-.07.05-.1.03-.06.07-.11.1-.17.02-.03.04-.07.07-.1.04-.06.09-.12.15-.19.02-.03.05-.06.07-.09.08-.09.17-.18.27-.28.15-.14.31-.26.48-.37.04-.03.08-.05.12-.07.13-.08.26-.16.39-.23.04-.02.08-.04.12-.06.13-.06.27-.12.4-.18.04-.02.08-.03.12-.04.13-.05.26-.09.38-.13.05-.01.09-.02.13-.04.11-.03.23-.06.33-.09.05-.01.1-.02.15-.03.09-.02.18-.04.25-.05.07-.01.12-.02.17-.03.05,0,.1-.02.14-.02.08-.01.15-.02.2-.03.04,0,.08,0,.11,0h-.08s0,0,0,0c0,0,0,0,0,0h0s0,0,0,0h-13.44s0,0,0,0h0s0,0,0,0h-.07s.06,0,.09,0c0,0,0,0,0,0,.05,0,.12.01.2.02.04,0,.1.02.15.02.05,0,.1.02.16.03.08.01.17.03.26.05.05.01.09.02.14.03.1.02.22.06.33.09.05.01.09.02.14.04.12.04.25.08.38.13.04.02.09.03.13.05.13.05.26.11.39.17.04.02.09.04.13.06.13.07.26.14.38.22.04.03.09.05.13.08.16.11.32.23.47.36,0,0,0,0,.01,0,0,0,0,0,0,0,.1.09.19.18.27.27.02.03.05.05.07.08.06.07.11.13.15.2.02.02.04.05.05.07.06.09.11.17.15.25,0,.01.01.02.02.03.04.07.07.14.09.21.01.03.02.06.03.08.02.05.03.1.05.14,0,.03.02.05.02.08.01.06.03.11.04.16,0,0,0,0,0,.01.01.15.03.36.04.6,0,1.05.02,2.08.02,3.1,0,.05,0,.09,0,.14,0,1,.01,1.99.02,2.96,0,.02,0,.04,0,.07.01,2.02.03,3.99.04,5.9,0,0,0,0,0,.01.02,3.84.04,7.44.05,10.77-.02,6.66-.06,14.42-.13,22.95,0,.12-.01.23-.02.33,0,0,0,0,0,.01,0,.1-.01.18-.02.26-.07.4-.29,1.01-.94,1.59-1.19,1.07-2.95,1.3-3.39,1.35-.03,0-.08,0-.11,0h0s0,0,0,0h.08s0,0,0,0h13.44s0,0,0,0h.08s0,0,0,0h0s-.08,0-.12,0c-.44-.05-2.2-.29-3.38-1.35-.74-.67-.92-1.35-.96-1.74,0-.06,0-.11-.01-.18,0,0,0-.01,0-.02-.04-4.86-.08-9.47-.11-13.78.32-2.7,1.86-5.12,4.22-6.54,6.35-3.8,15.8-4.04,22.38,1.59,0,0,8.39,7.27,5.9,19.12-.07.31-.2.78-.51,1.27-.12.2-.34.55-.72.85-.47.36-1,.49-1.41.52,3.64.01,7.28.03,10.91.04-.4-.07-.96-.22-1.51-.6Z"/>
      <path class="cls-1" d="M87.85,397.58c.08,0,.14,0,.18,0h-.01s0,0,.01,0h-.18s.01,0,.02,0h-.02Z"/>
      <path class="cls-1" d="M87.85,344.59h.18s-.1,0-.18,0Z"/>
      <path class="cls-1" d="M74.06,344.59h.2c-.09,0-.16,0-.2,0Z"/>
    </g>
    <path class="cls-1" d="M404.72,352.1c-5.15-4.83-12.26-7.81-20.12-7.81-7.2.01-14.39.03-21.59.04.03,0,.06,0,.09,0,.42.05,2.21.27,3.42,1.36.66.59.87,1.2.95,1.6,0,.15.02.35.04.6.02,3.21.05,6.31.07,9.29.02,4.97.04,9.59.06,13.76-.02,4.19-.04,8.8-.06,13.77-.02,2.98-.05,6.08-.07,9.29-.01.25-.03.46-.04.61-.08.4-.29,1.01-.95,1.6-1.2,1.08-2.99,1.32-3.42,1.36,7.17.02,14.33.03,21.5.05,15.72,0,28.46-11.94,28.46-26.67,0-7.36-3.18-14.03-8.34-18.86ZM400.36,388.27c-4.72,4.43-11.26,7.17-18.46,7.17h-6.26c-1.66,0-3.01-1.35-3.01-3.01v-36.67c0-5.12,4.15-9.27,9.27-9.27h0c14.42,0,26.11,10.96,26.11,24.47,0,6.76-2.92,12.88-7.65,17.31Z"/>
    <path class="cls-1" d="M254.25,357.04c-.04,5.02-.06,9.69-.08,13.92.02,4.22.04,8.89.08,13.92.02,3.02.05,6.16.08,9.41,0,.07,0,.13.02.19.04.39.22,1.08.96,1.75,1.2,1.08,2.98,1.31,3.41,1.36h-13.46c.43-.04,2.21-.28,3.42-1.36.46-.41.7-.82.83-1.17v-44.02c0-.78-1.04-1.05-1.41-.36l-18.1,33.31h0c-.54,1.02-1.59,1.64-2.73,1.64h0c-1.11,0-2.13-.59-2.68-1.54l-17.18-29.47-.99-1.7c-.39-.66-1.4-.39-1.4.38v41c0,.14.02.26.02.35.08.39.29,1.01.95,1.6,1.2,1.08,2.99,1.32,3.42,1.36h-11c.43-.04,2.21-.28,3.42-1.36.66-.59.87-1.2.95-1.6,0-.08.02-.17.02-.27,0-.1,0-.22.02-.34,0-.8,0-1.6.02-2.38.06-7.64.09-14.61.11-20.68-.02-6.06-.05-13.04-.11-20.67,0-.79,0-1.58-.02-2.39-.02-.25-.02-.45-.04-.6-.08-.41-.29-1.02-.95-1.6-.38-.34-.81-.59-1.25-.79-.94-.41-1.88-.53-2.17-.56-.03,0-.06,0-.09,0h8.6s.33.57.33.57l.75,1.29,19.26,33.06c.64,1.11,2.25,1.08,2.86-.04l18.32-33.73.62-1.14h9.79s-.07,0-.11,0c-.43.05-2.21.28-3.41,1.36-.75.67-.93,1.36-.96,1.75,0,.06-.02.12-.02.2-.03,3.25-.06,6.39-.08,9.4Z"/>
    <path class="cls-1" d="M471.59,343.34c-15.69,0-28.42,12.43-28.42,27.75s12.72,27.75,28.42,27.75,28.41-12.42,28.41-27.75-12.72-27.75-28.41-27.75ZM471.47,393.48c-14.7,0-26.61-9.95-26.61-22.23s11.91-22.23,26.61-22.23,26.61,9.95,26.61,22.23-11.91,22.23-26.61,22.23Z"/>
  </g>
</svg>