<?xml version="1.0" encoding="UTF-8"?>
<svg id="Layer_1" xmlns="http://www.w3.org/2000/svg" viewBox="0 0 725 85">
  <defs>
    <style>
      .cls-1 {
        fill: #e8e3dd;
      }
    </style>
  </defs>
  <path class="cls-1" d="M64.72,81.75c-36.9-.03-63.54-.04-63.54-.01,0,0,2.86.22,5.04-1.46.63-.48.99-1.01,1.2-1.48.02-.03.03-.07.04-.1.18-.43.23-.78.26-.98,0-.05,0-.1.02-.15,0-.07,0-.14.02-.22.33-4.29.33-31.46.04-68.04,0-.13,0-.29-.05-.5-.22-1.17-.99-1.94-1.37-2.32-1.65-1.62-4.66-1.94-4.96-1.97,21.16,0,42.32,0,63.48,0-.01,4.3-.03,8.61-.04,12.91-.9-1.38-2.39-3.32-4.67-5.14-1.32-1.04-2.81-1.85-4.38-2.4-1.58-.55-3.25-.84-4.94-.84h-20.74c-.37,0-.74.01-1.11.03-8.26.5-14.56,7.64-14.61,15.91-.03,4.04-.05,7.92-.07,11.61-.01,1.97,1.7,3.51,3.66,3.26,1.29-.17,2.72-.29,4.25-.32,14.73-.35,22.5,7.48,32.27,3.7,1.56-.61,4.03-1.84,6.64-4.63-1.64,7.6-4.45,10.03-6.64,10.89-7.54,2.96-22.28-7.38-31.59-6.83-.18,0-.37.02-.54.03-.03,0-.07,0-.1,0-4.56.4-7.99,4.39-7.99,8.97-.01,9.92.03,17.5.13,21.92.05,2.1,1.76,3.77,3.86,3.77h31.86c3.71,0,7.32-1.36,10.03-3.89l.06-.06c2.37-2.22,3.82-4.51,4.67-6.13-.06,4.82-.11,9.64-.17,14.46Z"/>
  <path class="cls-1" d="M483.69,81.75c-36.9-.03-63.54-.04-63.54-.01,0,0,2.86.22,5.04-1.46.63-.48.99-1.01,1.2-1.48.02-.03.03-.07.04-.1.18-.43.23-.78.26-.98,0-.05,0-.1.02-.15,0-.07,0-.14.02-.22.33-4.29.33-31.46.04-68.04,0-.13,0-.29-.05-.5-.22-1.17-.99-1.94-1.37-2.32-1.65-1.62-4.66-1.94-4.96-1.97,21.16,0,42.32,0,63.48,0-.01,4.3-.03,8.61-.04,12.91-.9-1.38-2.39-3.32-4.67-5.14-1.32-1.04-2.81-1.85-4.38-2.4-1.58-.55-3.25-.84-4.94-.84h-20.74c-.37,0-.74.01-1.11.03-8.26.5-14.56,7.64-14.61,15.91-.03,4.04-.05,7.92-.07,11.61-.01,1.97,1.7,3.51,3.66,3.26,1.29-.17,2.72-.29,4.25-.32,14.73-.35,22.5,7.48,32.27,3.7,1.56-.61,4.03-1.84,6.64-4.63-1.64,7.6-4.45,10.03-6.64,10.89-7.54,2.96-22.28-7.38-31.59-6.83-.18,0-.37.02-.54.03-.03,0-.07,0-.1,0-4.56.4-7.99,4.39-7.99,8.97-.01,9.92.03,17.5.13,21.92.05,2.1,1.76,3.77,3.86,3.77h31.86c3.71,0,7.32-1.36,10.03-3.89l.06-.06c2.37-2.22,3.82-4.51,4.67-6.13-.06,4.82-.11,9.64-.17,14.46Z"/>
  <g>
    <path class="cls-1" d="M245.04,81.75h-.26c.12,0,.21,0,.26,0Z"/>
    <path class="cls-1" d="M224.98,81.75h-.29c.05,0,.15,0,.29,0Z"/>
    <path class="cls-1" d="M244.78,4.54h.26c-.05,0-.14,0-.26,0Z"/>
    <path class="cls-1" d="M239.67,79.78c-1.08-.97-1.34-1.97-1.4-2.53,0-.09-.01-.18-.02-.28-.12-12.56-.19-24.01-.23-33.82.04-9.81.11-21.25.23-33.82,0-.1.01-.19.02-.28.06-.56.32-1.56,1.4-2.53,1.74-1.56,4.32-1.9,4.95-1.97.05,0,.11,0,.16,0h-.12s0,0,.01,0h-19.59s0,0,.01,0h-.11s.09,0,.13,0c.61.07,3.21.4,4.95,1.97.96.86,1.27,1.74,1.37,2.32.02.22.04.52.05.88.1,12.42.16,23.74.19,33.44-.03,9.7-.09,21.02-.19,33.44-.02.36-.03.66-.05.88-.1.59-.42,1.47-1.37,2.32-1.75,1.57-4.34,1.9-4.95,1.97-.05,0-.09,0-.13,0h.11s0,0-.01,0h19.59s0,0-.01,0h.12s-.1,0-.16,0c-.63-.07-3.21-.41-4.95-1.97Z"/>
    <path class="cls-1" d="M224.69,4.54h.29c-.13,0-.23,0-.29,0Z"/>
  </g>
  <g>
    <path class="cls-1" d="M108.85,81.75h-.29s.01,0,.02,0h-.02c.05,0,.15,0,.29,0h-.02s.02,0,.02,0Z"/>
    <path class="cls-1" d="M165.19,81.39c-.29,0-.59,0-.88,0,.19.02.5.04.88,0Z"/>
    <path class="cls-1" d="M178.82,80.58c-2.21-1.54-2.4-4.27-2.42-4.69,0-1.78-.07-4.26-.42-7.19-.43-3.6-.87-6.33-1.3-7.98-.42-1.6-1.34-5.01-3.42-8.57,0,0-3.45-5.91-9.75-9.98-7.72-5-21.69-4.82-35.61,2.15-.55.28-1.14-.29-.89-.86,2.24-5.14,7.97-15.8,20.28-22.88,9.92-5.71,19.4-6.37,24.02-6.37.65.09,1.84.36,2.96,1.24,2.32,1.83,2.37,4.73,2.37,5.15,0-6.39,0-12.78,0-19.17-.06.54-.38,3.02-2.54,4.75-1.3,1.04-2.66,1.33-3.34,1.42-5.45.44-12.43,1.78-19.69,5.41-13.99,6.98-21.91,18.89-26.23,28.26-.23.51-.99.34-.99-.22,0-.35,0-.69,0-1.04,0-.35,0-.7,0-1.05,0-.87,0-1.75.01-2.64,0-.41,0-.83,0-1.24,0-.86,0-1.74.01-2.62,0-.46,0-.91,0-1.37,0-.86.01-1.74.02-2.62,0-.49,0-.98,0-1.48,0-.81.01-1.62.02-2.44,0-.59,0-1.18.01-1.79,0-.87.01-1.75.02-2.63,0-.53,0-1.06.01-1.6,0-.86.01-1.73.02-2.6,0-.62.01-1.24.02-1.87,0-.77.01-1.56.02-2.35,0-.68.01-1.34.02-2.03,0-.1.01-.19.02-.28,0,0,0,0,0-.01.01-.1.03-.22.06-.34.01-.05.02-.1.03-.15.01-.04.03-.08.04-.12.02-.07.04-.14.07-.21.02-.04.04-.09.05-.13.03-.07.07-.15.1-.23.02-.05.05-.09.08-.14.04-.08.09-.16.15-.24.03-.05.06-.1.1-.14.06-.09.14-.18.21-.27.04-.04.07-.09.11-.13.12-.13.25-.27.4-.4.22-.2.45-.37.69-.53.06-.04.12-.07.17-.1.19-.12.38-.23.57-.33.06-.03.12-.05.18-.08.19-.09.38-.18.58-.25.06-.02.12-.04.18-.06.19-.07.37-.14.55-.19.07-.02.13-.03.19-.05.17-.05.33-.09.48-.13.08-.02.14-.03.22-.05.13-.03.25-.05.36-.07.09-.02.17-.03.25-.04.07-.01.14-.02.2-.03.12-.02.22-.03.29-.04.05,0,.11,0,.15,0h-.12s0,0,0,0c0,0,0,0,0,0h0s0,0,0,0h-19.49s0,0,0,0h0s0,0,.01,0h-.11s.09,0,.13,0c0,0,0,0,0,0,.07,0,.17.02.28.04.06,0,.15.02.22.03.08.01.15.02.23.04.11.02.25.05.38.08.07.02.13.03.21.04.15.04.32.08.48.13.07.02.13.03.2.05.18.05.36.12.54.19.06.02.12.04.19.07.19.07.38.16.57.25.06.03.12.05.19.08.19.09.37.21.55.32.06.04.13.07.19.11.24.16.46.33.68.52,0,0,.01,0,.02.01,0,0,0,0,0,0,.14.13.27.26.39.39.03.04.07.08.1.11.08.1.16.19.22.29.03.04.05.07.08.11.08.12.16.25.22.36,0,.02.02.03.02.05.05.1.1.2.14.3.02.04.03.08.05.12.03.07.05.14.07.21.01.04.02.08.03.11.02.08.04.16.05.24,0,0,0,.01,0,.02.02.22.04.51.05.87.01,1.52.02,3.01.03,4.5,0,.07,0,.13,0,.2.01,1.45.02,2.88.03,4.29,0,.03,0,.06,0,.1.02,2.93.04,5.79.05,8.56,0,0,0,.01,0,.02.03,5.56.05,10.79.07,15.61-.03,9.65-.09,20.91-.19,33.27,0,.18-.02.34-.03.48,0,0,0,.01,0,.02,0,.14-.02.27-.03.37-.1.58-.41,1.46-1.37,2.31-1.72,1.55-4.27,1.89-4.91,1.96-.05,0-.11,0-.15,0h0s0,0,0,0h.11s0,0-.01,0h19.49s0,0-.01,0h.12s0,0,0,0h0s-.11,0-.17,0c-.64-.07-3.19-.41-4.91-1.96-1.08-.97-1.34-1.96-1.4-2.52,0-.08-.01-.16-.02-.26,0,0,0-.02,0-.03-.06-7.05-.12-13.73-.16-19.98.46-3.91,2.69-7.43,6.12-9.49,9.2-5.51,22.9-5.86,32.45,2.31,0,0,12.17,10.54,8.56,27.73-.09.45-.29,1.13-.74,1.84-.18.28-.5.8-1.04,1.23-.68.53-1.44.71-2.05.76,5.27.02,10.55.04,15.82.07-.58-.09-1.39-.32-2.19-.87Z"/>
    <path class="cls-1" d="M128.55,81.75c.12,0,.21,0,.26,0h-.02s.01,0,.02,0h-.26s.02,0,.03,0h-.03Z"/>
    <path class="cls-1" d="M128.55,4.92h.26c-.05,0-.14,0-.26,0Z"/>
    <path class="cls-1" d="M108.56,4.92h.29c-.13,0-.23,0-.29,0Z"/>
  </g>
  <path class="cls-1" d="M588.02,15.8c-7.47-7-17.78-11.32-29.18-11.32-10.43.02-20.87.04-31.3.05.04,0,.09,0,.13.01.61.07,3.21.39,4.96,1.97.95.85,1.27,1.74,1.38,2.33.01.22.03.51.05.87.03,4.65.07,9.15.1,13.47.03,7.21.07,13.9.09,19.96-.02,6.07-.06,12.76-.09,19.96-.03,4.32-.07,8.82-.1,13.47-.02.36-.04.67-.05.88-.11.58-.43,1.46-1.38,2.31-1.75,1.57-4.33,1.91-4.96,1.98l31.17.07c22.79,0,41.26-17.32,41.26-38.67,0-10.68-4.62-20.34-12.09-27.34ZM581.7,68.25c-6.85,6.42-16.32,10.39-26.77,10.39h-9.07c-2.41,0-4.37-1.96-4.37-4.37V21.1c0-7.42,6.02-13.44,13.44-13.44h0c20.91,0,37.87,15.89,37.87,35.49,0,9.8-4.24,18.67-11.09,25.1Z"/>
  <path class="cls-1" d="M369.84,22.97c-.05,7.28-.09,14.05-.11,20.18.02,6.13.05,12.89.11,20.18.03,4.38.08,8.93.12,13.65,0,.1.01.19.02.27.05.57.32,1.56,1.4,2.53,1.74,1.56,4.32,1.9,4.95,1.98h-19.51c.62-.07,3.21-.4,4.96-1.98.67-.59,1.02-1.19,1.2-1.7V14.25c0-1.13-1.51-1.52-2.05-.52l-26.24,48.31v.02c-.8,1.45-2.32,2.36-3.97,2.36h0c-1.6,0-3.09-.85-3.89-2.24l-24.91-42.74-1.44-2.47c-.56-.96-2.04-.57-2.04.55v59.45c.01.2.02.37.03.5.11.57.41,1.46,1.38,2.31,1.75,1.57,4.33,1.91,4.96,1.97h-15.95c.62-.07,3.21-.4,4.96-1.98.96-.85,1.27-1.74,1.38-2.31.01-.11.02-.24.03-.39,0-.14.01-.32.02-.49.01-1.16.01-2.31.02-3.45.09-11.07.13-21.18.16-29.98-.03-8.79-.08-18.91-.16-29.97,0-1.15-.01-2.29-.02-3.46-.02-.36-.03-.66-.05-.87-.11-.59-.41-1.47-1.38-2.33-.55-.49-1.18-.86-1.81-1.15-1.36-.6-2.72-.78-3.14-.82-.04-.01-.09-.01-.13-.01h12.47s.48.83.48.83l1.08,1.87,27.93,47.93c.93,1.6,3.26,1.57,4.15-.06l26.57-48.91.9-1.66h14.19s-.1,0-.15.01c-.62.07-3.2.4-4.95,1.97-1.08.97-1.34,1.97-1.4,2.53-.01.09-.02.17-.02.28-.04,4.71-.09,9.26-.12,13.64Z"/>
  <path class="cls-1" d="M684.98,3.11c-22.75,0-41.2,18.02-41.2,40.23s18.45,40.23,41.2,40.23,41.19-18.01,41.19-40.23-18.44-40.23-41.19-40.23ZM684.81,75.8c-21.32,0-38.59-14.43-38.59-32.23s17.28-32.23,38.59-32.23,38.59,14.43,38.59,32.23-17.28,32.23-38.59,32.23Z"/>
</svg>