<?xml version="1.0" encoding="UTF-8"?>
<svg id="Layer_1" xmlns="http://www.w3.org/2000/svg" viewBox="0 0 716 128">
  <defs>
    <style>
      .cls-1 {
        fill: #e8e3dd;
      }
    </style>
  </defs>
  <g>
    <path class="cls-1" d="M96.43,126.99H.55c-.05-1.12-.06-2.53.08-4.13.08-.91.21-1.89.41-2.91.41-2.19,1.14-4.59,2.37-6.98,2.12-4.1,5.1-7,8.67-9.21,13.59-8.46,35.74-7.18,51.41-25.33,3-3.48,10.67-12.62,9.17-23.78-.16-1.19-1.78-12.25-10.59-16.04-6.5-2.79-14.24-.49-19.17,3.3-11.31,8.68-6.29,23.97-17.11,29.25-3.09,1.51-7.53,2.23-11.83.89-.75-.23-1.45-.52-2.1-.84-1.56-.82-4.77-2.77-7.31-6.59-2.39-3.6-2.91-7.07-3.24-9.36-.24-1.64-.29-3.03-.28-4.02V1.01h21.81s-.02,0-.02,0h.63s-.1,0-.17,0h72.94c.04,6.95.07,13.9.11,20.84-4.31-6.09-10.6-12.46-19.22-13.88-1.61-.27-2.83-.29-3.4-.29-11.71.02-23.42.04-35.12.06-.49,0-1.42.06-2.64.13-4.19.26-7.79.73-9.01.93-3.89.66-9.55,3.17-13.47,7.41-5.87,6.35-5.9,14.49-5.92,20.15,0,1.41.12,21.84,10.13,25.14,2.11.7,3.95.39,4.36.31,8.68-1.63,8.18-15.87,16.79-24.32,9.8-9.62,31-11.34,41.41-1.1,7.04,6.93,7.84,16.83,8.1,21.45.13,2.23.73,15.82-7.28,26.43-17.68,23.42-61.14,10.99-67.97,29.36,0,.03-.02.06-.03.09-1.23,3.37,1.34,6.93,4.93,6.9,14.07-.09,28.14-.25,42.21-.47,4.52-.07,9.04-.15,13.55-.23h.03s.03,0,.05,0c.15,0,.48,0,.89-.02.63-.03,1.46-.1,2.43-.27,8.88-1.56,15.11-9.13,19.25-16.26,0,7.87,0,15.74,0,23.62Z"/>
    <path class="cls-1" d="M203.77,126.99h-95.88c-.05-1.12-.06-2.53.08-4.13.08-.91.21-1.89.41-2.91.41-2.19,1.14-4.59,2.37-6.98,2.12-4.1,5.1-7,8.67-9.21,13.59-8.46,35.74-7.18,51.41-25.33,3-3.48,10.67-12.62,9.17-23.78-.16-1.19-1.78-12.25-10.59-16.04-6.5-2.79-14.24-.49-19.17,3.3-11.31,8.68-6.29,23.97-17.11,29.25-3.09,1.51-7.53,2.23-11.83.89-.75-.23-1.45-.52-2.1-.84-1.56-.82-4.77-2.77-7.31-6.59-2.39-3.6-2.91-7.07-3.24-9.36-.24-1.64-.29-3.03-.28-4.02V1.01h21.81s-.02,0-.02,0h.63s-.1,0-.17,0h72.94c.04,6.95.07,13.9.11,20.84-4.31-6.09-10.6-12.46-19.22-13.88-1.61-.27-2.83-.29-3.4-.29-11.71.02-23.42.04-35.12.06-.49,0-1.42.06-2.64.13-4.19.26-7.79.73-9.01.93-3.89.66-9.55,3.17-13.47,7.41-5.87,6.35-5.9,14.49-5.92,20.15,0,1.41.12,21.84,10.13,25.14,2.11.7,3.95.39,4.36.31,8.68-1.63,8.18-15.87,16.79-24.32,9.8-9.62,31-11.34,41.41-1.1,7.04,6.93,7.84,16.83,8.1,21.45.13,2.23.73,15.82-7.28,26.43-17.68,23.42-61.14,10.99-67.97,29.36,0,.03-.02.06-.03.09-1.23,3.37,1.34,6.93,4.93,6.9,14.07-.09,28.14-.25,42.21-.47,4.52-.07,9.04-.15,13.55-.23h.03s.03,0,.05,0c.15,0,.48,0,.89-.02.63-.03,1.46-.1,2.43-.27,8.88-1.56,15.11-9.13,19.25-16.26,0,7.87,0,15.74,0,23.62Z"/>
  </g>
  <g>
    <path class="cls-1" d="M284.62,99.97c-29.9-.02-51.5-.03-51.5-.01,0,0,2.32.18,4.09-1.18.51-.39.81-.82.97-1.2.02-.02.02-.05.03-.08.15-.35.19-.63.21-.79,0-.04,0-.08.02-.12,0-.06,0-.11.02-.18.27-3.48.27-25.49.03-55.15,0-.1,0-.23-.04-.41-.17-.95-.8-1.57-1.11-1.88-1.34-1.32-3.77-1.57-4.02-1.6,17.15,0,34.3,0,51.45,0-.01,3.49-.02,6.98-.03,10.46-.73-1.12-1.93-2.69-3.79-4.16-1.07-.85-2.28-1.5-3.55-1.95-1.28-.45-2.63-.68-4-.68h-16.81c-.3,0-.6,0-.9.03-6.69.41-11.8,6.19-11.84,12.9-.02,3.28-.04,6.42-.06,9.41,0,1.6,1.38,2.84,2.96,2.64,1.05-.13,2.2-.23,3.44-.26,11.94-.28,18.24,6.07,26.15,3,1.27-.49,3.26-1.49,5.38-3.75-1.33,6.16-3.61,8.13-5.38,8.83-6.11,2.4-18.06-5.98-25.6-5.53-.15,0-.3.02-.44.02-.03,0-.05,0-.08,0-3.7.32-6.47,3.55-6.48,7.27,0,8.04.02,14.18.1,17.77.04,1.7,1.43,3.06,3.13,3.06h25.82c3.01,0,5.93-1.1,8.13-3.15l.05-.05c1.92-1.8,3.1-3.66,3.79-4.97-.05,3.91-.09,7.81-.14,11.72Z"/>
    <path class="cls-1" d="M553.4,99.97c-29.9-.02-51.5-.03-51.5-.01,0,0,2.32.18,4.09-1.18.51-.39.81-.82.97-1.2.02-.02.02-.05.03-.08.15-.35.19-.63.21-.79,0-.04,0-.08.02-.12,0-.06,0-.11.02-.18.27-3.48.27-25.49.03-55.15,0-.1,0-.23-.04-.41-.17-.95-.8-1.57-1.11-1.88-1.34-1.32-3.77-1.57-4.02-1.6,17.15,0,34.3,0,51.45,0-.01,3.49-.02,6.98-.03,10.46-.73-1.12-1.93-2.69-3.79-4.16-1.07-.85-2.28-1.5-3.55-1.95-1.28-.45-2.63-.68-4-.68h-16.81c-.3,0-.6,0-.9.03-6.69.41-11.8,6.19-11.84,12.9-.02,3.28-.04,6.42-.06,9.41,0,1.6,1.38,2.84,2.96,2.64,1.05-.13,2.2-.23,3.44-.26,11.94-.28,18.24,6.07,26.15,3,1.27-.49,3.26-1.49,5.38-3.75-1.33,6.16-3.61,8.13-5.38,8.83-6.11,2.4-18.06-5.98-25.6-5.53-.15,0-.3.02-.44.02-.03,0-.05,0-.08,0-3.7.32-6.47,3.55-6.48,7.27,0,8.04.02,14.18.1,17.77.04,1.7,1.43,3.06,3.13,3.06h25.82c3.01,0,5.93-1.1,8.13-3.15l.05-.05c1.92-1.8,3.1-3.66,3.79-4.97-.05,3.91-.09,7.81-.14,11.72Z"/>
    <g>
      <path class="cls-1" d="M395.37,99.97h-.21c.1,0,.17,0,.21,0Z"/>
      <path class="cls-1" d="M379.11,99.97h-.23s.12,0,.23,0Z"/>
      <path class="cls-1" d="M395.16,37.39h.21s-.11,0-.21,0Z"/>
      <path class="cls-1" d="M391.02,98.37c-.88-.79-1.09-1.6-1.14-2.05,0-.07-.01-.14-.02-.23-.09-10.18-.16-19.46-.18-27.41.03-7.95.09-17.23.18-27.41,0-.08.01-.16.02-.23.05-.46.26-1.27,1.14-2.05,1.41-1.26,3.5-1.54,4.01-1.6.04,0,.09,0,.13,0h-.1s0,0,0,0h-15.88s0,0,0,0h-.09s.07,0,.11,0c.5.05,2.6.33,4.01,1.6.78.69,1.03,1.41,1.11,1.88.02.18.03.42.04.71.08,10.06.13,19.24.15,27.1-.02,7.86-.08,17.03-.15,27.1-.01.29-.03.53-.04.71-.08.48-.34,1.19-1.11,1.88-1.42,1.27-3.52,1.54-4.01,1.6-.04,0-.08,0-.11,0h.09s0,0,0,0h15.88s0,0,0,0h.1s-.08,0-.13,0c-.51-.06-2.6-.33-4.01-1.6Z"/>
      <path class="cls-1" d="M378.88,37.39h.23c-.11,0-.19,0-.23,0Z"/>
    </g>
    <g>
      <path class="cls-1" d="M302.69,99.97h-.23s0,0,.01,0h-.01s.12,0,.23,0h-.02s.01,0,.02,0Z"/>
      <path class="cls-1" d="M348.35,99.68c-.24,0-.48,0-.71,0,.15.01.41.03.71,0Z"/>
      <path class="cls-1" d="M359.4,99.02c-1.79-1.24-1.94-3.46-1.96-3.8,0-1.44-.06-3.45-.34-5.83-.35-2.92-.71-5.13-1.06-6.47-.34-1.29-1.09-4.06-2.77-6.95,0,0-2.8-4.79-7.9-8.09-6.26-4.05-17.58-3.91-28.86,1.74-.45.22-.92-.24-.72-.69,1.82-4.16,6.46-12.81,16.44-18.54,8.04-4.63,15.72-5.16,19.47-5.17.53.07,1.49.29,2.4,1,1.88,1.48,1.92,3.83,1.92,4.18,0-5.18,0-10.36,0-15.54-.05.44-.31,2.45-2.06,3.85-1.05.84-2.16,1.08-2.71,1.15-4.42.36-10.07,1.44-15.96,4.38-11.34,5.66-17.76,15.31-21.26,22.9-.19.41-.8.28-.8-.18,0-.28,0-.56,0-.84,0-.28,0-.57,0-.85,0-.7,0-1.42.01-2.14,0-.33,0-.67,0-1.01,0-.7,0-1.41.01-2.13,0-.37,0-.74,0-1.11,0-.7,0-1.41.01-2.13,0-.4,0-.8,0-1.2,0-.65,0-1.32.01-1.98,0-.48,0-.96.01-1.45,0-.7.01-1.42.02-2.13,0-.43,0-.86.01-1.3,0-.7.01-1.4.02-2.11,0-.5,0-1,.01-1.51,0-.63.01-1.27.02-1.9,0-.55,0-1.09.01-1.64,0-.08.01-.15.02-.22,0,0,0,0,0-.01,0-.08.03-.17.05-.28,0-.04.02-.08.03-.12,0-.03.02-.07.03-.1.02-.06.03-.11.06-.17.01-.03.03-.07.04-.11.03-.06.05-.12.08-.19.02-.04.04-.08.06-.11.04-.07.08-.13.12-.2.03-.04.05-.08.08-.12.05-.07.11-.15.17-.22.03-.03.05-.07.09-.1.1-.11.2-.22.32-.32.18-.16.37-.3.56-.43.05-.03.09-.05.14-.08.15-.09.3-.19.46-.27.05-.02.1-.04.15-.07.16-.07.31-.15.47-.21.05-.02.1-.03.14-.05.15-.06.3-.11.45-.15.05-.02.1-.03.15-.04.13-.04.27-.08.39-.1.06-.01.12-.02.18-.04.1-.02.21-.04.3-.06.08-.01.14-.02.21-.03.05,0,.12-.02.16-.03.1-.01.18-.02.24-.03.04,0,.09,0,.13,0h-.1s0,0,0,0c0,0,0,0,0,0h0s0,0,0,0h-15.8s0,0,0,0h0s0,0,0,0h-.09s.07,0,.11,0c0,0,0,0,0,0,.06,0,.14.02.23.03.05,0,.12.02.18.03.06,0,.12.02.19.03.09.02.2.04.31.06.06.01.11.02.17.04.12.03.26.07.39.1.05.02.1.03.16.04.14.04.29.1.44.15.05.02.1.03.15.05.15.06.31.13.46.2.05.02.1.04.15.07.15.08.3.17.45.26.05.03.1.06.15.09.19.13.37.27.55.42,0,0,0,0,.01,0,0,0,0,0,0,0,.12.1.22.21.31.31.03.03.05.06.08.09.07.08.13.16.18.23.02.03.04.06.06.09.07.1.13.2.18.3,0,.01.01.03.02.04.04.08.08.16.11.24.01.03.03.07.04.1.02.06.04.11.05.17,0,.03.02.06.03.09.02.07.03.13.04.19,0,0,0,0,0,.01.02.18.03.42.04.71,0,1.23.02,2.44.03,3.64,0,.05,0,.11,0,.16,0,1.17.02,2.33.02,3.48,0,.03,0,.05,0,.08.02,2.38.03,4.69.04,6.94,0,0,0,0,0,.01.03,4.51.04,8.74.06,12.65-.02,7.82-.08,16.95-.15,26.97,0,.14-.01.27-.02.39,0,0,0,0,0,.01,0,.11-.01.22-.02.3-.08.47-.34,1.18-1.11,1.87-1.4,1.25-3.46,1.53-3.98,1.59-.04,0-.09,0-.12,0h0s0,0,0,0h.09s0,0,0,0h15.8s0,0,0,0h.1s0,0,0,0h0s-.09,0-.14,0c-.52-.06-2.58-.34-3.98-1.59-.88-.78-1.08-1.59-1.13-2.04,0-.07-.01-.13-.02-.21,0,0,0-.02,0-.02-.05-5.71-.09-11.13-.13-16.19.37-3.17,2.18-6.02,4.96-7.69,7.46-4.47,18.56-4.75,26.3,1.87,0,0,9.86,8.55,6.93,22.47-.08.36-.24.91-.6,1.49-.14.23-.41.65-.84.99-.55.43-1.17.58-1.66.62,4.27.02,8.55.04,12.83.05-.47-.08-1.13-.26-1.78-.71Z"/>
      <path class="cls-1" d="M318.65,99.97c.1,0,.17,0,.21,0h-.01s.01,0,.01,0h-.21s.01,0,.02,0h-.02Z"/>
      <path class="cls-1" d="M318.65,37.7h.21s-.11,0-.21,0Z"/>
      <path class="cls-1" d="M302.46,37.7h.23c-.11,0-.19,0-.23,0Z"/>
    </g>
    <path class="cls-1" d="M620.25,46.52c-6.05-5.67-14.41-9.18-23.65-9.18-8.46.01-16.91.03-25.37.04.04,0,.07,0,.11,0,.5.05,2.6.32,4.02,1.59.77.69,1.03,1.41,1.11,1.88,0,.18.03.42.04.71.03,3.77.05,7.42.08,10.92.03,5.84.05,11.27.07,16.18-.02,4.92-.04,10.34-.07,16.18-.03,3.5-.05,7.15-.08,10.92-.02.29-.03.54-.04.72-.09.47-.34,1.19-1.11,1.88-1.42,1.27-3.51,1.55-4.02,1.6,8.42.02,16.84.04,25.26.05,18.47,0,33.44-14.03,33.44-31.34,0-8.65-3.74-16.49-9.8-22.16ZM615.12,89.03c-5.55,5.2-13.23,8.42-21.7,8.42h-7.35c-1.95,0-3.54-1.58-3.54-3.54v-43.1c0-6.02,4.88-10.89,10.89-10.89h0c16.95,0,30.69,12.88,30.69,28.76,0,7.95-3.43,15.13-8.99,20.34Z"/>
    <path class="cls-1" d="M478.82,52.33c-.04,5.9-.07,11.39-.09,16.35.02,4.96.04,10.45.09,16.35.03,3.55.06,7.24.1,11.06,0,.08,0,.15.02.22.04.46.26,1.27,1.13,2.05,1.41,1.27,3.5,1.54,4.01,1.6h-15.81c.5-.05,2.6-.33,4.02-1.6.54-.48.82-.96.97-1.38v-51.73c0-.92-1.22-1.23-1.66-.42l-21.27,39.15v.02c-.65,1.18-1.88,1.91-3.22,1.91h0c-1.3,0-2.5-.69-3.15-1.81l-20.19-34.64-1.16-2c-.45-.78-1.65-.46-1.65.45v48.18c0,.16.02.3.03.41.09.46.34,1.19,1.12,1.88,1.42,1.27,3.51,1.55,4.02,1.59h-12.93c.5-.05,2.6-.33,4.02-1.6.78-.69,1.03-1.41,1.12-1.88,0-.09.02-.19.03-.32,0-.11,0-.26.02-.4,0-.94,0-1.88.02-2.8.07-8.97.11-17.17.13-24.3-.03-7.12-.06-15.33-.13-24.29,0-.93,0-1.86-.02-2.81-.02-.29-.03-.53-.04-.71-.09-.48-.34-1.19-1.12-1.88-.44-.4-.96-.7-1.47-.93-1.11-.49-2.2-.63-2.55-.66-.03,0-.07,0-.11,0h10.11s.39.67.39.67l.88,1.51,22.64,38.85c.76,1.3,2.64,1.27,3.36-.05l21.53-39.64.73-1.35h11.5s-.08,0-.12,0c-.5.05-2.59.33-4.01,1.59-.88.79-1.09,1.59-1.13,2.05,0,.07-.02.14-.02.23-.04,3.81-.07,7.5-.1,11.05Z"/>
    <path class="cls-1" d="M681.14,36.23c-18.44,0-33.39,14.61-33.39,32.61s14.95,32.61,33.39,32.61,33.39-14.6,33.39-32.61-14.94-32.61-33.39-32.61ZM681,95.15c-17.28,0-31.28-11.7-31.28-26.12s14-26.12,31.28-26.12,31.28,11.7,31.28,26.12-14,26.12-31.28,26.12Z"/>
  </g>
</svg>